<svg xml:space="preserve" style="enable-background:new 0 0 260 34;" viewBox="0 0 260 34" y="0px" x="0px" xmlns:xlink="http://www.w3.org/1999/xlink" xmlns="http://www.w3.org/2000/svg" id="Layer_1" version="1.1">
<style type="text/css">
	.st0{fill:#555455;}
	.st1{fill:none;stroke:#555455;stroke-width:0.3205;stroke-miterlimit:10;}
	.st2{font-family:'OfficiallyFunkyRegular';}
	.st3{font-size:4.6241px;}
</style>
<path d="M20.28,0v10.78c-1.87-1.96-4.5-3.19-7.42-3.19c-5.68,0-10.29,4.63-10.29,10.34c0,5.71,4.61,10.34,10.29,10.34
	c2.92,0,5.55-1.22,7.42-3.19v2.66h2.86V0H20.28L20.28,0z M12.85,25.4c-4.1,0-7.42-3.34-7.42-7.46c0-4.12,3.32-7.46,7.42-7.46
	c4.1,0,7.42,3.34,7.42,7.46C20.28,22.06,16.95,25.4,12.85,25.4L12.85,25.4z" class="st0"></path>
<path d="M40.55,8.12v11.91c0,2.97-2.39,5.37-5.34,5.37c-2.95,0-5.34-2.4-5.34-5.37V8.12h-2.86v11.91
	c0,4.56,3.67,8.25,8.2,8.25c2.04,0,3.91-0.75,5.34-1.99v1.46h2.86V8.12H40.55L40.55,8.12z" class="st0"></path>
<path d="M62.4,23.01c-1.36,1.47-3.29,2.39-5.44,2.39c-4.1,0-7.42-3.34-7.42-7.46c0-4.12,3.32-7.46,7.42-7.46
	c1.95,0,3.72,0.75,5.05,1.99l2.03-2.04c-1.85-1.76-4.33-2.84-7.07-2.84c-5.68,0-10.29,4.63-10.29,10.34
	c0,5.71,4.61,10.34,10.29,10.34c2.94,0,5.59-1.24,7.47-3.23L62.4,23.01L62.4,23.01z" class="st0"></path>
<polygon points="74.22,15.9 83.44,8.12 78.99,8.12 70.19,15.54 70.19,0 67.32,0 67.32,27.75 70.19,27.75 70.19,19.3 
	72.03,17.75 80.38,27.75 84.12,27.75 74.22,15.9" class="st0"></polygon>
<path d="M101.32,0v10.78c-1.87-1.96-4.5-3.19-7.42-3.19c-5.68,0-10.29,4.63-10.29,10.34c0,5.71,4.61,10.34,10.29,10.34
	c2.92,0,5.55-1.22,7.42-3.19v2.66h2.86V0H101.32L101.32,0z M93.9,25.4c-4.1,0-7.42-3.34-7.42-7.46c0-4.12,3.32-7.46,7.42-7.46
	c4.1,0,7.42,3.34,7.42,7.46C101.32,22.06,98,25.4,93.9,25.4L93.9,25.4z" class="st0"></path>
<path d="M121.59,8.12v11.91c0,2.97-2.39,5.37-5.34,5.37c-2.95,0-5.34-2.4-5.34-5.37V8.12h-2.86v11.91
	c0,4.56,3.67,8.25,8.2,8.25c2.04,0,3.91-0.75,5.34-1.99v1.46h2.86V8.12H121.59L121.59,8.12z" class="st0"></path>
<path d="M143.45,23.01c-1.36,1.47-3.29,2.39-5.44,2.39c-4.1,0-7.42-3.34-7.42-7.46c0-4.12,3.32-7.46,7.42-7.46
	c1.95,0,3.72,0.75,5.05,1.99l2.03-2.04c-1.85-1.76-4.33-2.84-7.07-2.84c-5.68,0-10.29,4.63-10.29,10.34
	c0,5.71,4.61,10.34,10.29,10.34c2.94,0,5.59-1.24,7.46-3.23L143.45,23.01L143.45,23.01z" class="st0"></path>
<polygon points="155.27,15.9 164.48,8.12 160.03,8.12 151.23,15.54 151.23,0 148.37,0 148.37,27.75 151.23,27.75 
	151.23,19.3 153.07,17.75 161.43,27.75 165.16,27.75 155.27,15.9" class="st0"></polygon>
<path d="M173.36,8.48c1.23-0.53,2.59-0.82,4.01-0.82c2.83,0,5.38,1.15,7.24,3.01c1.85,1.86,3,4.43,3,7.28
	c0,2.84-1.15,5.41-3,7.28c-1.85,1.86-4.41,3.01-7.24,3.01c-1.42,0-2.78-0.29-4.01-0.82c-0.9-0.39-1.74-0.9-2.48-1.52v1.85h-3.74
	V0.48h3.74V10C171.62,9.38,172.45,8.86,173.36,8.48L173.36,8.48z M172.77,22.56c1.17,1.18,2.8,1.91,4.59,1.91
	c1.79,0,3.42-0.73,4.59-1.91c1.17-1.18,1.9-2.81,1.9-4.62c0-1.8-0.73-3.44-1.9-4.62c-1.18-1.18-2.8-1.91-4.59-1.91
	c-1.79,0-3.42,0.73-4.59,1.91c-1.18,1.18-1.9,2.81-1.9,4.62C170.87,19.75,171.6,21.38,172.77,22.56L172.77,22.56z M205.53,10V8.15
	h3.74v19.59h-3.74v-1.85c-0.75,0.62-1.58,1.13-2.48,1.52c-1.23,0.53-2.59,0.82-4.01,0.82c-2.82,0-5.38-1.15-7.24-3.01
	c-1.85-1.86-3-4.43-3-7.28c0-2.84,1.15-5.41,3-7.28c1.85-1.86,4.41-3.01,7.24-3.01c1.42,0,2.78,0.29,4.01,0.82
	C203.95,8.86,204.79,9.38,205.53,10L205.53,10z M194.45,22.56c1.17,1.18,2.8,1.91,4.59,1.91c1.79,0,3.42-0.73,4.59-1.91
	c1.17-1.18,1.9-2.81,1.9-4.62c0-1.8-0.73-3.44-1.9-4.62c-1.18-1.18-2.8-1.91-4.59-1.91c-1.79,0-3.42,0.73-4.59,1.91
	c-1.18,1.18-1.9,2.81-1.9,4.62C192.55,19.75,193.27,21.38,194.45,22.56L194.45,22.56z M218.39,8.48c1.23-0.53,2.59-0.82,4.01-0.82
	c2.83,0,5.38,1.15,7.24,3.01c1.85,1.86,3,4.43,3,7.28c0,2.84-1.15,5.41-3,7.28c-1.85,1.86-4.41,3.01-7.24,3.01
	c-1.42,0-2.78-0.29-4.01-0.82c-0.9-0.39-1.74-0.9-2.48-1.52v1.85h-3.74V0.48h3.74V10C216.66,9.38,217.49,8.86,218.39,8.48
	L218.39,8.48z M217.81,22.56c1.17,1.18,2.8,1.91,4.59,1.91c1.79,0,3.42-0.73,4.59-1.91c1.18-1.18,1.9-2.81,1.9-4.62
	c0-1.8-0.73-3.44-1.9-4.62c-1.17-1.18-2.8-1.91-4.59-1.91c-1.79,0-3.42,0.73-4.59,1.91c-1.18,1.18-1.9,2.81-1.9,4.62
	C215.91,19.75,216.64,21.38,217.81,22.56L217.81,22.56z M241.29,19.91l4.25-11.76h3.98l-7.76,21.44c-0.63,1.74-1.9,3.06-3.45,3.78
	c-1.55,0.73-3.37,0.86-5.09,0.23c-0.4-0.15-0.78-0.33-1.14-0.54c-0.37-0.22-0.71-0.47-1.02-0.75l-0.35-0.32l2.27-3.07l0.42,0.44
	c0.15,0.16,0.32,0.3,0.5,0.42c0.18,0.12,0.38,0.22,0.59,0.3h0c0.76,0.28,1.56,0.22,2.24-0.1c0.68-0.32,1.24-0.9,1.51-1.66
	c0.06-0.07,1.1-3.05,1.23-3.4l-7.77-16.75h4.13L241.29,19.91L241.29,19.91z" class="st0"></path>
<circle r="3.6" cy="3.75" cx="253.83" class="st1"></circle>
<text class="st0 st2 st3" transform="matrix(1 0 0 1 252.5502 5.374)">R</text>
</svg>
